<svg xmlns="http://www.w3.org/2000/svg" width="500" height="280">
 <rect width="500" height="280" fill="#1e1e1e" rx="8"/>
 <rect x="0" y="0" width="500" height="25" fill="#333" rx="8"/>
 <text x="250" y="18" font-family="Consolas" font-size="11" fill="#999" text-anchor="middle">config.yaml</text>
 <text x="15" y="50" font-family="Consolas" font-size="12" fill="#569CD6"></text><text x="67" y="50" font-family="Consolas" font-size="12" fill="#ddd">:</text>
 <text x="25" y="70" font-family="Consolas" font-size="12" fill="#9CDCFE">fps</text><text x="50" y="70" font-family="Consolas" font-size="12" fill="#ddd">: </text><text x="60" y="70" font-family="Consolas" font-size="12" fill="#B5CEA8">60</text>
 <text x="25" y="90" font-family="Consolas" font-size="12" fill="#9CDCFE">monitor</text><text x="80" y="90" font-family="Consolas" font-size="12" fill="#ddd">: </text><text x="90" y="90" font-family="Consolas" font-size="12" fill="#B5CEA8">0</text>
 <text x="15" y="120" font-family="Consolas" font-size="12" fill="#569CD6">detection</text><text x="80" y="120" font-family="Consolas" font-size="12" fill="#ddd">:</text>
 <text x="25" y="140" font-family="Consolas" font-size="12" fill="#9CDCFE">sensitivity</text><text x="100" y="140" font-family="Consolas" font-size="12" fill="#ddd">: </text><text x="110" y="140" font-family="Consolas" font-size="12" fill="#B5CEA8">0.8</text>
 <text x="25" y="160" font-family="Consolas" font-size="12" fill="#9CDCFE">color_threshold</text><text x="130" y="160" font-family="Consolas" font-size="12" fill="#ddd">: </text><text x="140" y="160" font-family="Consolas" font-size="12" fill="#B5CEA8">15</text>
 <text x="15" y="190" font-family="Consolas" font-size="12" fill="#569CD6">overlay</text><text x="67" y="190" font-family="Consolas" font-size="12" fill="#ddd">:</text>
 <text x="25" y="210" font-family="Consolas" font-size="12" fill="#9CDCFE">crosshair</text><text x="90" y="210" font-family="Consolas" font-size="12" fill="#ddd">: </text><text x="100" y="210" font-family="Consolas" font-size="12" fill="#CE9178">dot</text>
 <text x="25" y="230" font-family="Consolas" font-size="12" fill="#9CDCFE">color</text><text x="60" y="230" font-family="Consolas" font-size="12" fill="#ddd">: </text><text x="70" y="230" font-family="Consolas" font-size="12" fill="#CE9178">"#FF0000"</text>
 <text x="25" y="250" font-family="Consolas" font-size="12" fill="#9CDCFE">opacity</text><text x="75" y="250" font-family="Consolas" font-size="12" fill="#ddd">: </text><text x="85" y="250" font-family="Consolas" font-size="12" fill="#B5CEA8">0.8</text>
</svg>
