<svg xmlns="http://www.w3.org/2000/svg" width="700" height="400">
 <rect width="700" height="400" fill="#1a1a2e" rx="8"/>
 <rect x="15" y="15" width="670" height="40" fill="#16213e" rx="4"/>
 <text x="30" y="42" font-family="Consolas,monospace" font-size="16" fill="#e94560">darklens v1.2.0</text>
 <text x="550" y="42" font-family="Consolas,monospace" font-size="14" fill="#0f3460">FPS: 62</text>
 <rect x="15" y="70" width="325" height="310" fill="#0f3460" rx="4"/>
 <text x="30" y="100" font-family="Consolas,monospace" font-size="13" fill="#a7a7a7">Detection Regions</text>
 <rect x="40" y="115" width="280" height="30" fill="#16213e" rx="3"/>
 <circle cx="55" cy="130" r="6" fill="#4ecca3"/>
 <text x="70" y="135" font-family="Consolas,monospace" font-size="12" fill="#e8e8e8">center_screen — ACTIVE</text>
 <rect x="40" y="155" width="280" height="30" fill="#16213e" rx="3"/>
 <circle cx="55" cy="170" r="6" fill="#4ecca3"/>
 <text x="70" y="175" font-family="Consolas,monospace" font-size="12" fill="#e8e8e8">top_region — ACTIVE</text>
 <rect x="40" y="195" width="280" height="30" fill="#16213e" rx="3"/>
 <circle cx="55" cy="210" r="6" fill="#666"/>
 <text x="70" y="215" font-family="Consolas,monospace" font-size="12" fill="#888">bottom_region — IDLE</text>
 <text x="30" y="260" font-family="Consolas,monospace" font-size="13" fill="#a7a7a7">Hotkeys</text>
 <text x="40" y="285" font-family="Consolas,monospace" font-size="12" fill="#4ecca3">F1</text>
 <text x="80" y="285" font-family="Consolas,monospace" font-size="12" fill="#e8e8e8">Toggle on/off</text>
 <text x="40" y="305" font-family="Consolas,monospace" font-size="12" fill="#4ecca3">F2</text>
 <text x="80" y="305" font-family="Consolas,monospace" font-size="12" fill="#e8e8e8">Toggle overlay</text>
 <text x="40" y="325" font-family="Consolas,monospace" font-size="12" fill="#e94560">DEL</text>
 <text x="80" y="325" font-family="Consolas,monospace" font-size="12" fill="#e8e8e8">Panic (hide all)</text>
 <rect x="355" y="70" width="330" height="310" fill="#0f3460" rx="4"/>
 <text x="370" y="100" font-family="Consolas,monospace" font-size="13" fill="#a7a7a7">Status</text>
 <text x="370" y="130" font-family="Consolas,monospace" font-size="12" fill="#e8e8e8">State: <tspan fill="#4ecca3">RUNNING</tspan></text>
 <text x="370" y="155" font-family="Consolas,monospace" font-size="12" fill="#e8e8e8">Detections: <tspan fill="#e94560">2</tspan></text>
 <text x="370" y="180" font-family="Consolas,monospace" font-size="12" fill="#e8e8e8">Overlay: <tspan fill="#4ecca3">VISIBLE</tspan></text>
 <text x="370" y="205" font-family="Consolas,monospace" font-size="12" fill="#e8e8e8">Crosshair: <tspan fill="#e94560">dot</tspan></text>
 <text x="370" y="230" font-family="Consolas,monospace" font-size="12" fill="#e8e8e8">Sensitivity: 0.8</text>
 <text x="370" y="270" font-family="Consolas,monospace" font-size="13" fill="#a7a7a7">Performance</text>
 <rect x="370" y="280" width="200" height="8" fill="#16213e" rx="4"/>
 <rect x="370" y="280" width="160" height="8" fill="#4ecca3" rx="4"/>
 <text x="370" y="305" font-family="Consolas,monospace" font-size="11" fill="#888">CPU: 3.2% | RAM: 45MB</text>
</svg>
